<svg xmlns="http://www.w3.org/2000/svg" width="279" height="41" viewBox="0 0 279 41"><g><g><path d="M69.937 35.104v.12h-1.133l-.802-2.202h-3.725l-.803 2.203h-1.107v-.12l3.128-8.305h1.302zm-2.276-3.021l-1.496-4.116h-.05l-1.497 4.116zm12.783 3.021v.12h-1.278l-4.005-4.38v4.38h-1.057V26.8h1.057v3.923l3.896-3.923h1.264v.12l-3.82 3.864zm11.155 0v.12h-1.133l-.802-2.202h-3.725l-.803 2.203H84.03v-.12l3.128-8.305h1.302zm-2.276-3.021l-1.496-4.116h-.05l-1.497 4.116zm6.443-5.283h2.822c2.422 0 3.798 1.685 3.798 4.213 0 2.346-1.253 4.212-3.798 4.212h-2.822zm2.713 7.473c1.96 0 2.81-1.503 2.81-3.26 0-1.746-.85-3.25-2.81-3.25h-1.656v6.51zm8.438-7.473h5.476v.963h-4.417v2.636h4.04v.962h-4.04v2.912h4.417v.952h-5.476zm9.885 0h1.252l2.873 5.14h.049l2.872-5.14h1.229v8.425h-1.01v-6.751h-.049L121 33.78h-.12l-3.019-5.345h-.049v6.789h-1.01zm13.255 0h1.071v8.425h-1.07zm12.79 8.304v.12h-1.13l-.805-2.202h-3.723l-.803 2.203h-1.108v-.12l3.127-8.305h1.303zm-2.275-3.021l-1.497-4.116h-.05l-1.495 4.116zM152.95 26.8h3.419c1.436 0 2.482.807 2.482 2.19 0 .915-.438 1.444-1.071 1.72v.05c.657.265 1.387.841 1.387 2.034 0 1.54-1.046 2.43-2.713 2.43h-3.504zm3.163 3.61c.986 0 1.655-.433 1.655-1.42 0-.794-.548-1.25-1.521-1.25h-2.251v2.67zm.22 3.863c1.009 0 1.74-.517 1.74-1.48 0-.987-.657-1.468-1.74-1.468h-2.337v2.948zm7.347-7.473h1.071v8.425h-1.07zm12.79 8.304v.12h-1.131l-.804-2.202h-3.724l-.802 2.203H168.9v-.12l3.127-8.305h1.303zm-2.275-3.021l-1.497-4.116h-.05l-1.495 4.116zm12.059 2.18v.962h-5.17V32.01l-.73.289h-.124v-.927l.853-.337V26.8h1.057v3.827l2.193-.866h.12v.95l-2.313.89v2.661zm4.133-7.463h5.476v.963h-4.416v2.636h4.04v.962h-4.04v2.912h4.416v.952h-5.476zm9.394 4.236c0-2.6 1.29-4.345 3.725-4.345 2.07 0 3.286 1.144 3.444 2.805h-1.095c-.11-1.047-.9-1.818-2.35-1.818-1.983 0-2.628 1.661-2.628 3.358s.645 3.322 2.629 3.322c1.692 0 2.58-1.155 2.58-2.611h-2.337v-.952h3.347v.711c0 2.322-1.303 3.827-3.59 3.827-2.458 0-3.725-1.733-3.725-4.297zm11.417-.023c0-2.42 1.145-4.322 3.772-4.322 2.616 0 3.773 1.903 3.773 4.322 0 2.407-1.157 4.32-3.773 4.32-2.627 0-3.772-1.913-3.772-4.32zm6.45 0c0-1.697-.657-3.335-2.678-3.335-2.031 0-2.677 1.638-2.677 3.335 0 1.696.657 3.334 2.677 3.334s2.678-1.638 2.678-3.334zm17.902 4.091v.12h-1.277l-4.004-4.38v4.38h-1.059V26.8h1.059v3.923l3.894-3.923h1.265v.12l-3.82 3.864zm10.561 0v.12h-1.156l-2.239-3.333h-2.07v3.334h-1.058V26.8h3.371c1.74 0 2.702 1.095 2.702 2.527 0 1.253-.73 2.118-1.837 2.432zm-5.464-4.176h2.25c1.072 0 1.657-.578 1.657-1.589 0-.986-.585-1.576-1.656-1.576h-2.251zm9.467 1.323v-5.45h1.059v5.427c0 1.3.719 2.142 2.178 2.142 1.485 0 2.19-.842 2.19-2.142V26.8h1.071v5.451c0 1.94-1.229 3.082-3.26 3.082-1.997 0-3.238-1.143-3.238-3.082zm17.728 2.853v.12h-1.277l-4.005-4.38v4.38h-1.058V26.8h1.058v3.923l3.895-3.923h1.265v.12l-3.82 3.864zm11.157 0v.12h-1.133l-.803-2.202h-3.725l-.802 2.203h-1.108v-.12l3.128-8.305h1.302zm-2.277-3.021l-1.496-4.116h-.05l-1.496 4.116zM20.727 20.497H0L10.364 0zM31.09 10.248c0 5.66-4.64 10.25-10.363 10.25V-.002C26.45 0 31.09 4.588 31.09 10.25zm0 20.498c0 5.66-4.64 10.249-10.363 10.249V20.497c5.723 0 10.363 4.59 10.363 10.249zm17.95-10.249v20.498l-17.95-10.25z"/></g></g></svg>